<?xml version="1.0" encoding="UTF-8"?>
<svg version="1.1" xmlns="http://www.w3.org/2000/svg" width="500" height="500">
<path d="M0 0 C7.48883802 4.48071653 13.23275007 11.49410086 15.4375 20 C16.66542786 30.07660387 15.0003742 38.71661141 8.75 46.8125 C4.08356215 51.84796737 -2.68469753 55.69239798 -9.56640625 56.23828125 C-19.78245236 56.45134917 -27.26143421 55.38181795 -34.9375 48.3125 C-41.95251716 40.54485954 -43.3906393 33.11065509 -42.94921875 22.82421875 C-42.16991977 15.1178177 -39.47318173 10.04570392 -33.5625 5 C-32.77875 4.29875 -31.995 3.5975 -31.1875 2.875 C-22.30911132 -3.4667062 -9.98649501 -4.5337462 0 0 Z " fill="#843404" transform="translate(103.5625,226)"/>
<path d="M0 0 C6.33447473 0.39590467 11.01483553 4.95969207 15.25 9.3125 C20.51290061 17.39481164 22.15531099 24.29774547 21 34 C19.08940841 41.71750199 15.30152511 48.07670385 8.68359375 52.57421875 C6.47876902 53.86596999 4.38619209 55.08370224 2 56 C1.34 55.67 0.68 55.34 0 55 C0.34933594 53.92105469 0.69867188 52.84210938 1.05859375 51.73046875 C5.16811809 38.41686927 8.81364169 22.90605267 3.5625 9.5625 C1.06329114 3.18987342 1.06329114 3.18987342 0 0 Z " fill="#E7711B" transform="translate(98,225)"/>
<path d="M0 0 C0.82154422 6.24373606 -1.73963288 10.87015632 -5 16 C-7.7963324 19.53880687 -10.68329031 22.93741934 -14 26 C-14.66 26 -15.32 26 -16 26 C-16 26.66 -16 27.32 -16 28 C-17.95927063 29.7143618 -19.95880212 31.38405168 -22 33 C-27.95828019 26.71523871 -32.13684191 21.56697632 -32.1875 12.5625 C-32.13988627 11.04112785 -32.08256871 9.51987588 -32 8 C-22.26588594 3.36470759 -10.86033201 -0.31942153 0 0 Z " fill="#EE7217" transform="translate(93,243)"/>
<path d="M0 0 C2.64 0 5.28 0 8 0 C8.72515135 13.83830484 5.81410232 25.80526766 2 39 C-6.92981438 39.46321804 -13.97331823 39.1428035 -22 35 C-22 32 -22 32 -20.53125 30.4921875 C-19.52578125 29.69167969 -19.52578125 29.69167969 -18.5 28.875 C-9.90807126 21.62128317 -2.70528831 13.60820939 -0.1875 2.375 C-0.0946875 1.199375 -0.0946875 1.199375 0 0 Z " fill="#E8711A" transform="translate(95,243)"/>
<path d="M0 0 C3.00850655 1.79230177 4.5230916 3.20515267 6.3125 6.1875 C7.61566641 11.51863531 7.66405121 16.20706173 5.75 21.375 C3.27829075 25.08256388 1.20141168 26.59952944 -3 28 C-8.57210746 28.4127487 -9.94778472 28.03132917 -15 25 C-15.33 29.95 -15.66 34.9 -16 40 C-17.65 40 -19.3 40 -21 40 C-21 26.8 -21 13.6 -21 0 C-19.35 0 -17.7 0 -16 0 C-15.67 0.66 -15.34 1.32 -15 2 C-14.195625 1.484375 -13.39125 0.96875 -12.5625 0.4375 C-8.00551392 -1.40128386 -4.70593977 -1.27633422 0 0 Z M-12.9375 6 C-15.37923947 9.55162105 -16 11.69877305 -16 16 C-14.41161066 19.57387602 -13.28365642 20.81089572 -10 23 C-6.04004171 23.60260235 -4.4766349 23.32121048 -1.125 21.0625 C1.72953906 16.94860547 1.79973293 13.8620127 1 9 C0.20426487 6.38239295 0.20426487 6.38239295 -2 5 C-6.41087283 3.46287765 -9.01503146 3.32938312 -12.9375 6 Z " fill="#2B2B2B" transform="translate(283,242)"/>
<path d="M0 0 C4.39938699 2.21358629 6.51009349 4.52246796 8.10546875 9.30859375 C8.10546875 11.61859375 8.10546875 13.92859375 8.10546875 16.30859375 C-2.28953125 16.80359375 -2.28953125 16.80359375 -12.89453125 17.30859375 C-12.56453125 18.62859375 -12.23453125 19.94859375 -11.89453125 21.30859375 C-8.31449352 22.50193966 -5.65137229 22.64402599 -1.89453125 22.30859375 C-0.86845785 20.99521979 0.132742 19.6619527 1.10546875 18.30859375 C4.29296875 18.05859375 4.29296875 18.05859375 7.10546875 18.30859375 C6.81087866 21.84367478 6.35665462 23.07062819 3.73046875 25.55859375 C-0.54111189 28.40631418 -3.83281403 28.65176102 -8.89453125 28.30859375 C-12.59005428 27.0042915 -14.57134946 25.64878511 -17.26953125 22.80859375 C-19.54882383 17.89934819 -19.6711425 13.63392802 -18.89453125 8.30859375 C-17.08881195 4.41935217 -15.62705578 2.79694344 -12.08203125 0.43359375 C-7.81162845 -1.07360724 -4.34661211 -1.58628937 0 0 Z M-13.89453125 10.30859375 C-13.89453125 10.63859375 -13.89453125 10.96859375 -13.89453125 11.30859375 C-8.61453125 11.30859375 -3.33453125 11.30859375 2.10546875 11.30859375 C1.48419716 7.41017688 1.48419716 7.41017688 -0.58203125 5.55859375 C-7.19787835 1.98246018 -10.14513816 4.90505665 -13.89453125 10.30859375 Z " fill="#3C3C3C" transform="translate(170.89453125,241.69140625)"/>
<path d="M0 0 C2.10638096 1.84308334 3.09381017 3.11381141 4 5.75 C4 6.74 4 7.73 4 8.75 C1.1875 9 1.1875 9 -2 8.75 C-2.474375 8.09 -2.94875 7.43 -3.4375 6.75 C-3.953125 6.09 -4.46875 5.43 -5 4.75 C-8.58399407 4.33307147 -8.58399407 4.33307147 -12 4.75 C-13.29633621 5.81645115 -13.29633621 5.81645115 -13.0625 8.3125 C-13.041875 9.116875 -13.02125 9.92125 -13 10.75 C-12.19175781 11.05292969 -11.38351562 11.35585937 -10.55078125 11.66796875 C1.04674728 16.21464761 1.04674728 16.21464761 4 20.75 C4.68199259 23.58778275 4.72643919 25.91860315 4 28.75 C1.46546343 31.96954645 -0.11297305 33.45432435 -4 34.75 C-9.24262952 35.14567015 -12.54355112 34.58592201 -17 31.75 C-19.88092425 28.77304494 -20 28.08178252 -20 23.75 C-17.1875 23.4375 -17.1875 23.4375 -14 23.75 C-12.5 26.25 -12.5 26.25 -11 28.75 C-7.70138599 29.299769 -5.89881298 29.32987934 -3.0625 27.5 C-1.82521908 25.81342011 -1.82521908 25.81342011 -2.03515625 23.80078125 C-2.88403321 21.43961184 -2.88403321 21.43961184 -5.8359375 20.37109375 C-7.00382812 19.98050781 -8.17171875 19.58992188 -9.375 19.1875 C-16.87005809 16.65314 -16.87005809 16.65314 -19 13.75 C-20.07360679 9.68563145 -20.23944884 7.41793623 -18.8125 3.4375 C-14.59734093 -2.81256346 -6.51046748 -2.71269478 0 0 Z " fill="#3C3C3C" transform="translate(314,235.25)"/>
<path d="M0 0 C3.30299379 1.68140328 5.48588307 3.76611938 6.9375 7.25 C6.958125 7.8275 6.97875 8.405 7 9 C6 10 6 10 3.625 10.3125 C2.75875 10.209375 1.8925 10.10625 1 10 C0.319375 9.01 0.319375 9.01 -0.375 8 C-0.91125 7.34 -1.4475 6.68 -2 6 C-5.58399407 5.58307147 -5.58399407 5.58307147 -9 6 C-10.29633621 7.06645115 -10.29633621 7.06645115 -10.0625 9.5625 C-10.041875 10.366875 -10.02125 11.17125 -10 12 C-9.01 12.4125 -8.02 12.825 -7 13.25 C-4.20755966 14.45569725 -1.43468257 15.69420938 1.3125 17 C1.96863281 17.309375 2.62476563 17.61875 3.30078125 17.9375 C5 19 5 19 7 22 C7.45681807 26.11136265 7.45731782 28.26502493 5.25 31.8125 C1.95173391 35.01914759 0.23974689 35.88520862 -4.375 36.3125 C-9.23839013 35.89324223 -12.46250672 34.58874305 -15.875 31.0625 C-17 29 -17 29 -17 25 C-14.75 24.6875 -14.75 24.6875 -12 25 C-11.360625 25.825 -10.72125 26.65 -10.0625 27.5 C-8.20248715 30.34028149 -8.20248715 30.34028149 -4.875 30.375 C-2.06266243 30.16790317 -2.06266243 30.16790317 0 29 C0 27.02 0 25.04 0 23 C-0.89203125 22.69707031 -1.7840625 22.39414062 -2.703125 22.08203125 C-3.87359375 21.66308594 -5.0440625 21.24414062 -6.25 20.8125 C-7.41015625 20.40644531 -8.5703125 20.00039062 -9.765625 19.58203125 C-13.35200416 17.82782405 -14.93637049 16.39533132 -17 13 C-17.53005361 9.79263478 -17.05751696 7.06394104 -16 4 C-11.55951453 -0.66820267 -6.11459841 -1.15949435 0 0 Z " fill="#3B3B3B" transform="translate(200,234)"/>
<path d="M0 0 C1.65 0 3.3 0 5 0 C5.33 3.63 5.66 7.26 6 11 C7.32 10.34 8.64 9.68 10 9 C14.9607761 8.54902035 18.11698728 8.76415607 22 12 C25.44026684 17.28002585 25.36577937 21.80435893 25.1875 27.875 C25.16719727 29.19371094 25.16719727 29.19371094 25.14648438 30.5390625 C25.11136623 32.69297552 25.05756694 34.84657004 25 37 C23.02 37 21.04 37 19 37 C18.98541748 36.40461426 18.97083496 35.80922852 18.95581055 35.19580078 C18.88145656 32.50486949 18.78475813 29.81519667 18.6875 27.125 C18.66494141 26.18785156 18.64238281 25.25070312 18.61914062 24.28515625 C18.5659668 22.94130859 18.5659668 22.94130859 18.51171875 21.5703125 C18.48553467 20.74289551 18.45935059 19.91547852 18.43237305 19.06298828 C18.16903363 16.60672068 18.16903363 16.60672068 15 15 C11.42243314 14.99917465 11.42243314 14.99917465 8 16 C5.18145639 19.61447785 5.54955772 24.3642373 5.375 28.75 C5.33632813 29.54277344 5.29765625 30.33554687 5.2578125 31.15234375 C5.163892 33.10119416 5.08087178 35.05056451 5 37 C3.35 37 1.7 37 0 37 C0 24.79 0 12.58 0 0 Z " fill="#232323" transform="translate(324,232)"/>
<path d="M0 0 C3.28493968 2.53180717 5.20814038 4.96950211 6.1640625 8.984375 C6.64103136 14.23103244 6.02639544 17.54282389 3.1640625 21.984375 C-1.1943265 25.91755531 -3.79644732 27.30302518 -9.7421875 27.1953125 C-14.36574115 26.72950672 -17.07778973 24.78242528 -20.2109375 21.484375 C-22.49207741 16.57115059 -22.60516468 12.31345405 -21.8359375 6.984375 C-19.98528323 2.83890943 -18.51229321 1.39549318 -14.6484375 -0.953125 C-9.48026035 -2.39343666 -4.82324246 -2.66817668 0 0 Z M-13.7109375 4.421875 C-16.52741604 7.81821677 -17.14908771 10.60897065 -16.8359375 14.984375 C-15.26162986 18.60528256 -14.14710824 19.77692784 -10.8359375 21.984375 C-7.10412613 21.84867277 -4.59365643 21.45066357 -1.3984375 19.484375 C0.94818764 15.72977478 0.93201932 12.29126684 0.1640625 7.984375 C-1.95520157 4.59355248 -3.43441812 4.10118064 -7.2734375 2.984375 C-10.84059597 2.71884193 -10.84059597 2.71884193 -13.7109375 4.421875 Z " fill="#363636" transform="translate(250.8359375,243.015625)"/>
<path d="M0 0 C3.54502453 2.36334969 5.0067807 3.98575842 6.8125 7.875 C7.58911125 13.20033427 7.46679258 17.46575444 5.1875 22.375 C1.5178959 26.23774116 -1.88239499 27.99864837 -7.1875 28.3125 C-12.29490547 28.10742253 -15.40442942 25.59658539 -19 22.125 C-21.43250861 17.51603631 -21.38803497 13.18961815 -20.625 8.1875 C-18.77419678 3.92260562 -16.98505126 2.51003557 -13.1875 -0.125 C-8.49815463 -1.68811512 -4.66994475 -1.64821579 0 0 Z M-14.1875 7.875 C-15.6996867 10.89937339 -15.36013369 13.53741534 -15.1875 16.875 C-13.99982145 20.25531589 -13.28924775 20.80716817 -10.1875 22.875 C-6.2901276 23.38335292 -4.68193274 23.20462183 -1.375 21 C1.42171179 18.28319426 1.75553123 17.47886898 2.125 13.5625 C1.75594069 9.2076001 1.09171697 7.73380454 -2.1875 4.875 C-7.71724966 3.16580465 -10.16791156 3.73718837 -14.1875 7.875 Z " fill="#353535" transform="translate(374.1875,242.125)"/>
<path d="M0 0 C4.22652987 1.82509245 6.11454518 3.83158707 8 8 C8.36083174 11.44634896 8.28287063 14.852258 8.1875 18.3125 C8.16719727 19.70952148 8.16719727 19.70952148 8.14648438 21.13476562 C8.11126882 23.42377646 8.06202099 25.71158458 8 28 C6.35 28 4.7 28 3 28 C2.95101562 26.81921875 2.90203125 25.6384375 2.8515625 24.421875 C2.77651121 22.86456063 2.70096439 21.30727009 2.625 19.75 C2.5940625 18.97269531 2.563125 18.19539063 2.53125 17.39453125 C2.3721319 11.85966754 2.3721319 11.85966754 0 7 C-3.41666667 5.91666667 -3.41666667 5.91666667 -7 6 C-9.11208983 7.33765689 -9.76227989 8.27642857 -10.53515625 10.62890625 C-11.19222713 13.9805199 -11.36630824 17.34719873 -11.5625 20.75 C-11.60568359 21.44738281 -11.64886719 22.14476562 -11.69335938 22.86328125 C-11.79889596 24.57531922 -11.8998991 26.28763561 -12 28 C-13.65 28 -15.3 28 -17 28 C-17 19.09 -17 10.18 -17 1 C-14.33333333 1 -11.66666667 1 -9 1 C-5.93570224 -0.53214888 -3.3834358 -0.22938548 0 0 Z " fill="#2F2F2F" transform="translate(139,241)"/>
<path d="M0 0 C7.52303849 1.96253178 14.74860938 3.91434896 19 11 C19 11.66 19 12.32 19 13 C17.85144531 13.24234375 16.70289062 13.4846875 15.51953125 13.734375 C6.17973427 15.73820798 -2.92619184 17.98608492 -12 21 C-11.32034233 12.67419357 -8.14935197 7.66387682 -2 2 C-1.34 1.34 -0.68 0.68 0 0 Z " fill="#EE7114" transform="translate(73,228)"/>
<path d="M0 0 C6.51791614 0.95218253 10.75006841 4.68757031 15.25 9.3125 C20.57409012 17.48878126 21.79913449 24.21387764 21 34 C20.70767839 35.34292106 20.39228771 36.6828063 20 38 C19.34 38 18.68 38 18 38 C12.44419134 24.55125285 12.44419134 24.55125285 12 17 C10.35 17 8.7 17 7 17 C4.55497117 11.37643369 2.25953144 5.70044226 0 0 Z " fill="#843605" transform="translate(98,225)"/>
<path d="M0 0 C1.65 0 3.3 0 5 0 C5 2.31 5 4.62 5 7 C7.31 7 9.62 7 12 7 C12 8.32 12 9.64 12 11 C9.69 11 7.38 11 5 11 C5 16.94 5 22.88 5 29 C7.31 29.33 9.62 29.66 12 30 C12 31.32 12 32.64 12 34 C10.56344146 34.08131463 9.1255517 34.13933559 7.6875 34.1875 C6.48673828 34.23970703 6.48673828 34.23970703 5.26171875 34.29296875 C2.41544151 33.92427999 1.74173525 33.24325618 0 31 C-0.34057617 28.82348633 -0.34057617 28.82348633 -0.29296875 26.33203125 C-0.28330078 25.43935547 -0.27363281 24.54667969 -0.26367188 23.62695312 C-0.23853516 22.69818359 -0.21339844 21.76941406 -0.1875 20.8125 C-0.16719727 19.40194336 -0.16719727 19.40194336 -0.14648438 17.96289062 C-0.11113096 15.64134962 -0.06178674 13.32096347 0 11 C-1.32 11 -2.64 11 -4 11 C-4 9.68 -4 8.36 -4 7 C-2.68 7 -1.36 7 0 7 C0 4.69 0 2.38 0 0 Z " fill="#212121" transform="translate(388,235)"/>
<path d="M0 0 C1.65 0 3.3 0 5 0 C5 2.31 5 4.62 5 7 C7.31 7 9.62 7 12 7 C12 8.32 12 9.64 12 11 C9.69 11 7.38 11 5 11 C5 16.94 5 22.88 5 29 C7.31 29.33 9.62 29.66 12 30 C12 31.32 12 32.64 12 34 C10.56344146 34.08131463 9.1255517 34.13933559 7.6875 34.1875 C6.48673828 34.23970703 6.48673828 34.23970703 5.26171875 34.29296875 C2.41544151 33.92427999 1.74173525 33.24325618 0 31 C-0.34057617 28.82348633 -0.34057617 28.82348633 -0.29296875 26.33203125 C-0.28330078 25.43935547 -0.27363281 24.54667969 -0.26367188 23.62695312 C-0.23853516 22.69818359 -0.21339844 21.76941406 -0.1875 20.8125 C-0.16719727 19.40194336 -0.16719727 19.40194336 -0.14648438 17.96289062 C-0.11113096 15.64134962 -0.06178674 13.32096347 0 11 C-1.32 11 -2.64 11 -4 11 C-4 9.68 -4 8.36 -4 7 C-2.68 7 -1.36 7 0 7 C0 4.69 0 2.38 0 0 Z " fill="#212121" transform="translate(214,235)"/>
<path d="M0 0 C0.74958984 0.00451172 1.49917969 0.00902344 2.27148438 0.01367188 C4.11852383 0.02543646 5.96552213 0.04337135 7.8125 0.0625 C7.8125 1.0525 7.8125 2.0425 7.8125 3.0625 C8.43606893 4.91093646 9.10827873 6.74326171 9.8125 8.5625 C11.8125 13.72916667 11.8125 13.72916667 11.8125 17.0625 C6.58234656 17.58551534 6.58234656 17.58551534 3.8125 17.0625 C1.625 14.3125 1.625 14.3125 -0.1875 11.0625 C-4.03782683 7.42608022 -8.43414398 5.27994648 -13.1875 3.0625 C-9.39141521 -0.73358479 -5.02540381 -0.05705699 0 0 Z " fill="#DF6F1D" transform="translate(90.1875,223.9375)"/>
<path d="M0 0 C3.31336941 1.3554693 4.67499256 2.50118763 6.62890625 5.5 C8.42640972 10.08849888 8.33059051 14.00258478 8.1875 18.875 C8.16719727 20.19371094 8.16719727 20.19371094 8.14648438 21.5390625 C8.11136623 23.69297552 8.05756694 25.84657004 8 28 C6.02 28 4.04 28 2 28 C1.98541748 27.40461426 1.97083496 26.80922852 1.95581055 26.19580078 C1.88145656 23.50486949 1.78475813 20.81519667 1.6875 18.125 C1.66494141 17.18785156 1.64238281 16.25070312 1.61914062 15.28515625 C1.58369141 14.38925781 1.54824219 13.49335938 1.51171875 12.5703125 C1.48553467 11.74289551 1.45935059 10.91547852 1.43237305 10.06298828 C1.16903363 7.60672068 1.16903363 7.60672068 -2 6 C-3.65549531 5.61500109 -5.3222433 5.27206865 -7 5 C-7 4.01 -7 3.02 -7 2 C-7.66 1.67 -8.32 1.34 -9 1 C-5.93570224 -0.53214888 -3.3834358 -0.22938548 0 0 Z " fill="#3D3D3D" transform="translate(341,241)"/>
<path d="M0 0 C1.65 0 3.3 0 5 0 C7 3 7 3 8 6 C7.33333333 8 6.66666667 10 6 12 C5.71651979 14.64759822 5.49835747 17.22281443 5.375 19.875 C5.33632812 20.56335938 5.29765625 21.25171875 5.2578125 21.9609375 C5.16451834 23.64023246 5.08121762 25.32007767 5 27 C3.35 27 1.7 27 0 27 C0 18.09 0 9.18 0 0 Z " fill="#242324" transform="translate(122,242)"/>
<path d="M0 0 C0.38281159 5.23175837 -0.78145293 8.37802694 -3 13 C-4 10 -4 10 -3 7 C-4.98 7.99 -4.98 7.99 -7 9 C-7 7.68 -7 6.36 -7 5 C-6.360625 4.87625 -5.72125 4.7525 -5.0625 4.625 C-4.381875 4.41875 -3.70125 4.2125 -3 4 C-2.67 3.34 -2.34 2.68 -2 2 C-10.39238419 3.37443513 -18.3741336 4.69812486 -26.1796875 8.23046875 C-28 9 -28 9 -30 9 C-29.67 13.62 -29.34 18.24 -29 23 C-31.42581871 20.57418129 -31.96355664 18.92566131 -32.09765625 15.51953125 C-32.08605469 14.62621094 -32.07445312 13.73289062 -32.0625 12.8125 C-32.05347656 11.91144531 -32.04445312 11.01039063 -32.03515625 10.08203125 C-32.02355469 9.39496094 -32.01195312 8.70789063 -32 8 C-22.26588594 3.36470759 -10.86033201 -0.31942153 0 0 Z " fill="#D97023" transform="translate(93,243)"/>
<path d="M0 0 C0.66 0.99 1.32 1.98 2 3 C1.67 3.66 1.34 4.32 1 5 C0.34 5 -0.32 5 -1 5 C-1 5.66 -1 6.32 -1 7 C2.12197478 5.6910428 2.12197478 5.6910428 4 3 C4.66 3 5.32 3 6 3 C6 2.34 6 1.68 6 1 C6.66 1.33 7.32 1.66 8 2 C6.57063361 3.81892117 5.13123035 5.62995881 3.6875 7.4375 C2.88699219 8.44683594 2.08648437 9.45617187 1.26171875 10.49609375 C-1 13 -1 13 -4 14 C-4 14.66 -4 15.32 -4 16 C-5.95927063 17.7143618 -7.95880212 19.38405168 -10 21 C-11.32 19.35 -12.64 17.7 -14 16 C-13.195625 16.185625 -12.39125 16.37125 -11.5625 16.5625 C-10.716875 16.706875 -9.87125 16.85125 -9 17 C-8.67 16.67 -8.34 16.34 -8 16 C-8.99 15.67 -9.98 15.34 -11 15 C-10.67 14.01 -10.34 13.02 -10 12 C-9.030625 11.566875 -8.06125 11.13375 -7.0625 10.6875 C-3.74973185 9.27653527 -3.74973185 9.27653527 -2.75 6 C-2.37875 4.515 -2.37875 4.515 -2 3 C-1.34 2.01 -0.68 1.02 0 0 Z " fill="#E4711C" transform="translate(81,255)"/>
<path d="M0 0 C0.66 0.33 1.32 0.66 2 1 C1.04882866 2.1725131 0.08882991 3.33787015 -0.875 4.5 C-1.67550781 5.47453125 -1.67550781 5.47453125 -2.4921875 6.46875 C-2.98976563 6.9740625 -3.48734375 7.479375 -4 8 C-4.66 8 -5.32 8 -6 8 C-5.59688639 10.51686936 -5.59688639 10.51686936 -4 13 C-1.33474712 14.08241903 1.1407915 14.49272107 4 15 C0.77621244 17.1491917 -1.98414648 18.024994 -5.6875 19.125 C-6.86699219 19.47820312 -8.04648438 19.83140625 -9.26171875 20.1953125 C-10.16535156 20.46085937 -11.06898437 20.72640625 -12 21 C-11.32034233 12.67419357 -8.14935197 7.66387682 -2 2 C-1.34 1.34 -0.68 0.68 0 0 Z " fill="#E4711E" transform="translate(73,228)"/>
<path d="M0 0 C5.1147746 0.46497951 8.02953006 2.96375828 12 6 C11.67 9.3 11.34 12.6 11 16 C9.35 16 7.7 16 6 16 C5.18667257 13.89615302 4.37436583 11.79191143 3.5625 9.6875 C3.11003906 8.51574219 2.65757813 7.34398437 2.19140625 6.13671875 C1.42015245 4.10617185 0.68687358 2.06062074 0 0 Z " fill="#DD7022" transform="translate(98,225)"/>
<path d="M0 0 C6.97078365 0.43567398 12.25011879 2.99231743 17 8.1875 C18 10 18 10 18 12 C12.92523206 13.26305335 8.27203646 14.27036084 3 14 C6.28463659 11.81024227 9.20696275 11.00193437 13 10 C11.35 9.67 9.7 9.34 8 9 C8.33 7.35 8.66 5.7 9 4 C5.7 3.34 2.4 2.68 -1 2 C-0.67 1.34 -0.34 0.68 0 0 Z " fill="#DF7022" transform="translate(74,229)"/>
<path d="M0 0 C2.37310654 3.55965981 2.26915041 5.21962224 2.25 9.4375 C2.25515625 10.57058594 2.2603125 11.70367187 2.265625 12.87109375 C2.01398568 15.83525691 1.54596941 17.50313671 0 20 C-0.83661862 17.2092793 -1.66942737 14.41751988 -2.5 11.625 C-2.73847656 10.8309375 -2.97695312 10.036875 -3.22265625 9.21875 C-3.44824219 8.45820313 -3.67382812 7.69765625 -3.90625 6.9140625 C-4.11572266 6.2123291 -4.32519531 5.5105957 -4.54101562 4.78759766 C-5 3 -5 3 -5 1 C-3.35 0.67 -1.7 0.34 0 0 Z " fill="#DE7020" transform="translate(117,243)"/>
<path d="M0 0 C0.74958984 0.00451172 1.49917969 0.00902344 2.27148438 0.01367188 C4.11852383 0.02543646 5.96552213 0.04337135 7.8125 0.0625 C7.8125 0.3925 7.8125 0.7225 7.8125 1.0625 C5.1725 1.0625 2.5325 1.0625 -0.1875 1.0625 C-0.1875 2.0525 -0.1875 3.0425 -0.1875 4.0625 C-0.8475 4.0625 -1.5075 4.0625 -2.1875 4.0625 C-2.1875 5.0525 -2.1875 6.0425 -2.1875 7.0625 C-6.31501449 6.45551257 -9.5196148 5.02439209 -13.1875 3.0625 C-9.39141521 -0.73358479 -5.02540381 -0.05705699 0 0 Z " fill="#E88C46" transform="translate(90.1875,223.9375)"/>
<path d="M0 0 C0.33 0 0.66 0 1 0 C1 1.98 1 3.96 1 6 C1.598125 6.12375 2.19625 6.2475 2.8125 6.375 C5 7 5 7 8 9 C6.94583321 9.82328299 5.881178 10.63314321 4.8125 11.4375 C4.22082031 11.88996094 3.62914063 12.34242188 3.01953125 12.80859375 C1 14 1 14 -4 15 C-2.68 10.05 -1.36 5.1 0 0 Z " fill="#E27E35" transform="translate(102,266)"/>
<path d="M0 0 C-2.98440561 1.54078615 -6.01007758 2.86973276 -9.125 4.125 C-9.99382812 4.47820312 -10.86265625 4.83140625 -11.7578125 5.1953125 C-14 6 -14 6 -16 6 C-15.67 10.62 -15.34 15.24 -15 20 C-17.42581871 17.57418129 -17.96355664 15.92566131 -18.09765625 12.51953125 C-18.08605469 11.62621094 -18.07445312 10.73289062 -18.0625 9.8125 C-18.05347656 8.91144531 -18.04445312 8.01039063 -18.03515625 7.08203125 C-18.02355469 6.39496094 -18.01195312 5.70789063 -18 5 C-5.85377358 -0.34433962 -5.85377358 -0.34433962 0 0 Z " fill="#DB8240" transform="translate(79,246)"/>
<path d="M0 0 C0.66 0 1.32 0 2 0 C1.38955672 7.63054095 -0.79621821 14.70189474 -3 22 C-3.99 22 -4.98 22 -6 22 C-5.73445313 21.16597656 -5.46890625 20.33195312 -5.1953125 19.47265625 C-3.16911282 13.01691785 -1.34863251 6.63077651 0 0 Z " fill="#8A3906" transform="translate(102,258)"/>
<path d="M0 0 C2.37310654 3.55965981 2.26915041 5.21962224 2.25 9.4375 C2.25515625 10.57058594 2.2603125 11.70367187 2.265625 12.87109375 C2.01398568 15.83525691 1.54596941 17.50313671 0 20 C-1.01593448 13.11422188 -0.83854735 6.90188971 0 0 Z " fill="#E6A16D" transform="translate(117,243)"/>
<path d="M0 0 C3.82669043 3.42388092 5.72278474 6.00724943 7 11 C4.03 10.505 4.03 10.505 1 10 C0.67 6.7 0.34 3.4 0 0 Z " fill="#DD8E52" transform="translate(110,232)"/>
<path d="M0 0 C2.3129482 2.3129482 2.49580975 3.47904875 3.125 6.625 C3.29257813 7.44226563 3.46015625 8.25953125 3.6328125 9.1015625 C3.81457031 10.04128906 3.81457031 10.04128906 4 11 C1.36 11 -1.28 11 -4 11 C-4 10.34 -4 9.68 -4 9 C-2.68 9 -1.36 9 0 9 C0 6.03 0 3.06 0 0 Z " fill="#D97226" transform="translate(98,230)"/>
<path d="M0 0 C1 4 1 4 1 8 C-1.3125 8.6875 -1.3125 8.6875 -4 9 C-4.99 8.01 -5.98 7.02 -7 6 C-4.69 4.02 -2.38 2.04 0 0 Z " fill="#E4833D" transform="translate(79,270)"/>
<path d="M0 0 C0.66 0 1.32 0 2 0 C2 0.66 2 1.32 2 2 C2.66 2 3.32 2 4 2 C4.93423645 5.01031744 5.04449911 5.86650268 4 9 C2.68 8.67 1.36 8.34 0 8 C0 7.34 0 6.68 0 6 C0.66 6 1.32 6 2 6 C2.33 5.34 2.66 4.68 3 4 C2.38125 4.185625 1.7625 4.37125 1.125 4.5625 C-1 5 -1 5 -3 4 C-3 3.34 -3 2.68 -3 2 C-2.01 2 -1.02 2 0 2 C0 1.34 0 0.68 0 0 Z " fill="#EF7013" transform="translate(94,230)"/>
<path d="M0 0 C0 0.33 0 0.66 0 1 C-1.65 1.33 -3.3 1.66 -5 2 C-4.01 2.99 -3.02 3.98 -2 5 C-3.11375 5.309375 -4.2275 5.61875 -5.375 5.9375 C-8.7945155 6.82326483 -8.7945155 6.82326483 -11 8 C-10.42415568 5.61435923 -9.77772405 3.33317216 -9 1 C-5.8035914 -0.06546953 -3.34252724 -0.07427838 0 0 Z " fill="#565656" transform="translate(280,241)"/>
<path d="M0 0 C0.33 0.66 0.66 1.32 1 2 C2.65 2 4.3 2 6 2 C6 2.66 6 3.32 6 4 C4.04072937 5.7143618 2.04119788 7.38405168 0 9 C-1.32 7.35 -2.64 5.7 -4 4 C-3.195625 4.185625 -2.39125 4.37125 -1.5625 4.5625 C-0.716875 4.706875 0.12875 4.85125 1 5 C1.33 4.67 1.66 4.34 2 4 C1.01 3.67 0.02 3.34 -1 3 C-0.67 2.01 -0.34 1.02 0 0 Z " fill="#E07F37" transform="translate(71,267)"/>
<path d="M0 0 C0.99 0.33 1.98 0.66 3 1 C1.79157144 5.43090471 0.48331435 7.98112756 -3 11 C-3 9.35 -3 7.7 -3 6 C-2.01 6 -1.02 6 0 6 C0 4.02 0 2.04 0 0 Z " fill="#E59658" transform="translate(114,262)"/>
<path d="M0 0 C0.66 0.33 1.32 0.66 2 1 C1.04882866 2.1725131 0.08882991 3.33787015 -0.875 4.5 C-1.40867187 5.1496875 -1.94234375 5.799375 -2.4921875 6.46875 C-2.98976563 6.9740625 -3.48734375 7.479375 -4 8 C-4.66 8 -5.32 8 -6 8 C-6 8.66 -6 9.32 -6 10 C-6.66 10 -7.32 10 -8 10 C-6.44303593 6.17836093 -3.96591316 3.81381505 -1 1 C-0.67 0.67 -0.34 0.34 0 0 Z " fill="#E7A577" transform="translate(73,228)"/>
<path d="M0 0 C4.51478398 0.53115106 7.34666857 2.36620292 11 5 C9.68 5.33 8.36 5.66 7 6 C6.67 5.01 6.34 4.02 6 3 C4.35 3 2.7 3 1 3 C0.67 2.01 0.34 1.02 0 0 Z " fill="#E7AA7A" transform="translate(98,225)"/>
<path d="M0 0 C1.45742463 -0.08096803 2.91612807 -0.13917774 4.375 -0.1875 C5.18710938 -0.22230469 5.99921875 -0.25710938 6.8359375 -0.29296875 C7.55007812 -0.19628906 8.26421875 -0.09960938 9 0 C9.66 0.99 10.32 1.98 11 3 C9.54077307 2.88590407 8.08259402 2.75834456 6.625 2.625 C5.40683594 2.52058594 5.40683594 2.52058594 4.1640625 2.4140625 C2 2 2 2 0 0 Z " fill="#E7A26B" transform="translate(77,279)"/>
<path d="M0 0 C0.99 0.33 1.98 0.66 3 1 C3 2.65 3 4.3 3 6 C0.36 5.01 -2.28 4.02 -5 3 C-2 1 -2 1 0 0 Z " fill="#DA7022" transform="translate(83,225)"/>
<path d="M0 0 C1.32 0 2.64 0 4 0 C5.04449911 3.13349732 4.93423645 3.98968256 4 7 C3.34 7 2.68 7 2 7 C1.34 4.69 0.68 2.38 0 0 Z " fill="#DF7121" transform="translate(100,228)"/>
<path d="M0 0 C1.32 0 2.64 0 4 0 C4 0.99 4 1.98 4 3 C0.66666667 6 0.66666667 6 -2 6 C-2 5.01 -2 4.02 -2 3 C-1.34 3 -0.68 3 0 3 C0 2.01 0 1.02 0 0 Z " fill="#EF7012" transform="translate(90,225)"/>
<path d="M0 0 C1.32 0 2.64 0 4 0 C4.33 1.32 4.66 2.64 5 4 C3.02 4 1.04 4 -1 4 C-0.67 2.68 -0.34 1.36 0 0 Z " fill="#E8873F" transform="translate(64,238)"/>
<path d="M0 0 C1.98 0.66 3.96 1.32 6 2 C4.71034824 3.37562854 3.37310707 4.70766393 2 6 C1.34 6 0.68 6 0 6 C0 4.02 0 2.04 0 0 Z " fill="#E89451" transform="translate(104,272)"/>
<path d="M0 0 C0.33 0.66 0.66 1.32 1 2 C0 5 0 5 -3 7 C-3.99 6.67 -4.98 6.34 -6 6 C-4.02 4.02 -2.04 2.04 0 0 Z " fill="#DD7323" transform="translate(86,263)"/>
<path d="M0 0 C0.268125 0.639375 0.53625 1.27875 0.8125 1.9375 C1.88667752 4.33131686 1.88667752 4.33131686 5 5 C3.02 5.66 1.04 6.32 -1 7 C-0.67 4.69 -0.34 2.38 0 0 Z " fill="#E3955A" transform="translate(62,242)"/>
</svg>
